<?xml version="1.0" encoding="UTF-8"?>
<svg width="30px" height="34px" viewBox="0 0 30 34" version="1.1" xmlns="http://www.w3.org/2000/svg" xmlns:xlink="http://www.w3.org/1999/xlink">
    <title>discord</title>
    <g id="Page-1" stroke="none" stroke-width="1" fill="none" fill-rule="evenodd">
        <g id="discord" fill="#000000" fill-rule="nonzero">
            <path d="M18.1558,14.297 C17.1868,14.297 16.4218,15.13 16.4218,16.167 C16.4218,17.204 17.2038,18.037 18.1558,18.037 C19.1248,18.037 19.8898,17.204 19.8898,16.167 C19.8898,15.13 19.1078,14.297 18.1558,14.297 Z M11.9508,14.297 C10.9818,14.297 10.2168,15.13 10.2168,16.167 C10.2168,17.204 10.9988,18.037 11.9508,18.037 C12.9198,18.037 13.6848,17.204 13.6848,16.167 C13.7018,15.13 12.9198,14.297 11.9508,14.297 Z" id="Shape"></path>
            <path d="M26.4178,0.152954 L3.63783,0.152954 C1.71683,0.152954 0.152832,1.71695 0.152832,3.63795 L0.152832,26.418 C0.152832,28.339 1.71683,29.903 3.63783,29.903 L22.9158,29.903 L22.0148,26.792 L24.1908,28.798 L26.2478,30.685 L29.9198,33.864 L29.9198,3.63795 C29.9028,1.71695 28.3388,0.152954 26.4178,0.152954 Z M19.8558,22.168 C19.8558,22.168 19.2438,21.437 18.7338,20.808 C20.9608,20.179 21.8108,18.802 21.8108,18.802 C21.1138,19.261 20.4508,19.584 19.8558,19.805 C19.0058,20.162 18.1898,20.383 17.3908,20.536 C15.7588,20.842 14.2628,20.757 12.9878,20.519 C12.0188,20.332 11.1858,20.077 10.4888,19.788 C10.0978,19.635 9.67283,19.448 9.24783,19.21 C9.19683,19.176 9.14583,19.159 9.09483,19.125 C9.06083,19.108 9.04383,19.091 9.02683,19.091 C8.72083,18.921 8.55083,18.802 8.55083,18.802 C8.55083,18.802 9.36683,20.145 11.5258,20.791 C11.0158,21.437 10.3868,22.185 10.3868,22.185 C6.62983,22.066 5.20183,19.618 5.20183,19.618 C5.20183,14.195 7.64983,9.79195 7.64983,9.79195 C10.0978,7.97295 12.4098,8.02395 12.4098,8.02395 L12.5798,8.22795 C9.51983,9.09495 8.12583,10.438 8.12583,10.438 C8.12583,10.438 8.49983,10.234 9.12883,9.96195 C10.9478,9.16295 12.3928,8.95895 12.9878,8.89095 C13.0898,8.87395 13.1748,8.85695 13.2768,8.85695 C14.3138,8.72095 15.4868,8.68695 16.7108,8.82295 C18.3258,9.00995 20.0598,9.48595 21.8278,10.438 C21.8278,10.438 20.4848,9.16295 17.5948,8.29595 L17.8328,8.02395 C17.8328,8.02395 20.1618,7.97295 22.5928,9.79195 C22.5928,9.79195 25.0408,14.195 25.0408,19.618 C25.0408,19.601 23.6128,22.049 19.8558,22.168 Z" id="Shape"></path>
        </g>
    </g>
</svg>